<?xml version="1.0" encoding="utf-8"?>
<!-- Generator: Adobe Illustrator 23.0.1, SVG Export Plug-In . SVG Version: 6.00 Build 0)  -->
<svg version="1.1" id="Layer_1" xmlns="http://www.w3.org/2000/svg" xmlns:xlink="http://www.w3.org/1999/xlink" x="0px" y="0px"
	 viewBox="0 0 501.2 512" style="enable-background:new 0 0 501.2 512;" xml:space="preserve">
<style type="text/css">
	.st0{fill:#C00000;}
	.st1{fill:#385723;}
</style>
<path class="st0" d="M73.3,422.8l-18.4,32.6h6.3l4-7.6H78l1.3,7.6h5.9l-6.7-32.6L73.3,422.8L73.3,422.8z M67.7,443.3l7.3-13.6
	l2.3,13.6H67.7z M89.5,455.5h5.7l6-32.6h-5.7L89.5,455.5z M119.3,422.8h-10.8l-6,32.6h5.7l2.3-12.5h6.6l4.3,12.5h6.1V455l-5.1-13.4
	c2.3-0.9,4.2-2.1,5.5-3.7c1.3-1.6,2.1-3.4,2.2-5.5c0.3-3-0.7-5.4-2.6-7.2C125.8,423.7,123.1,422.8,119.3,422.8z M122.1,436.7
	c-1.3,1-3,1.6-5.1,1.6h-5.6l2-11h6.3c1.7,0,3,0.5,3.9,1.4c0.9,0.9,1.2,2.2,0.9,3.9C124.4,434.4,123.4,435.8,122.1,436.7z
	 M160.1,426.9c1.8,0,3.1,0.5,4,1.4c0.9,0.9,1.3,2.2,1.2,3.9h5.7c0-2-0.4-3.7-1.2-5.1c-0.9-1.6-2.1-2.6-3.8-3.5
	c-1.7-0.9-3.5-1.3-5.7-1.3c-2.2,0-4.3,0.3-6.3,1c-2,0.8-3.5,1.8-4.7,3.3c-1.2,1.4-1.8,3-2,5c-0.1,2.1,0.5,4,2,5.6
	c1.4,1.6,4,3,7.6,4.2l2,0.7c2.7,1,4,2.6,3.7,4.8c-0.3,1.4-1,2.6-2.2,3.4c-1.3,0.8-2.9,1.2-4.7,1.2c-2,0-3.5-0.5-4.7-1.6
	c-1-1-1.6-2.5-1.4-4.3h-5.7c-0.1,2,0.4,3.8,1.3,5.4c0.9,1.6,2.3,2.7,4.2,3.7c1.8,0.9,3.9,1.3,6.1,1.3c2.3,0,4.6-0.4,6.5-1
	c2-0.7,3.5-1.8,4.6-3.1c1.2-1.4,1.7-3,2-4.8c0.1-2.2-0.4-4.2-1.8-5.9s-3.9-3.1-7.6-4.3l-1.7-0.7c-3-1-4.3-2.6-4-4.4
	c0.3-1.4,0.9-2.6,2.2-3.4C156.9,427.3,158.3,426.9,160.1,426.9z M194.3,440.8l0.8-4.4h-13.7l1.7-9h15.8l0.8-4.6h-21.5l-5.9,32.6H194
	l0.8-4.6h-15.9l1.8-10L194.3,440.8L194.3,440.8z M215.5,422.8h-10.9l-6,32.6h5.7l2.3-12.5h6.5l4.3,12.5h6.1V455l-5.1-13.4
	c2.3-0.9,4.2-2.1,5.5-3.7c1.2-1.6,2.1-3.4,2.2-5.5c0.3-3-0.5-5.4-2.6-7.2C222.1,423.7,219.2,422.8,215.5,422.8z M218.2,436.7
	c-1.3,1-3,1.6-5.1,1.6h-5.6l2-11h6.3c1.7,0,3,0.5,3.9,1.4c0.9,0.9,1.2,2.2,0.9,3.9C220.4,434.4,219.8,435.8,218.2,436.7z
	 M253.2,422.8l-12.5,25.4l-4.2-25.4h-6.1l6.5,32.6h5.6l17.2-32.6H253.2z M258.3,455.5h5.7l6-32.6h-5.7L258.3,455.5z M279,440.5
	l0.5-3c0.7-3.5,1.7-6.1,3.5-8c1.7-1.8,3.9-2.7,6.4-2.6c1.8,0,3.3,0.5,4.2,1.6c0.9,1,1.4,2.7,1.6,5.1h5.7c-0.1-3.5-1.2-6.3-3.1-8.2
	c-1.9-1.9-4.7-3-8.1-3c-2.7,0-5.1,0.5-7.3,1.7c-2.2,1.2-4,3-5.6,5.2c-1.6,2.3-2.5,5-3,8c-0.5,3-0.8,5.2-0.7,6.9
	c0.1,2.2,0.7,4.3,1.6,6.1c0.9,1.8,2.2,3.1,3.8,4.2c1.7,0.9,3.5,1.4,5.7,1.4c3.8,0,6.9-0.9,9.7-3c2.6-2.1,4.2-4.7,4.8-8.2h-5.7
	c-1.2,4.4-4,6.7-8.4,6.5c-1.4,0-2.5-0.4-3.4-1.2c-0.9-0.7-1.6-1.7-1.8-3.1c-0.4-1.3-0.5-2.7-0.4-4.3L279,440.5z M324.2,440.8
	l0.8-4.4h-13.7l1.7-9h15.8l0.8-4.6h-21.5l-5.9,32.6h21.7l0.8-4.6h-15.9l1.8-10L324.2,440.8L324.2,440.8z M345.1,426.9
	c1.8,0,3.1,0.5,4,1.4c0.9,0.9,1.3,2.2,1.2,3.9h5.7c0-2-0.4-3.7-1.2-5.1c-0.9-1.6-2.1-2.6-3.8-3.5c-1.7-0.8-3.5-1.3-5.7-1.3
	s-4.3,0.3-6.3,1c-2,0.7-3.5,1.8-4.7,3.3c-1.2,1.4-1.8,3-2,5c-0.1,2.1,0.5,4,2,5.6c1.4,1.6,4,3,7.6,4.2l2,0.7c2.7,1,4,2.6,3.7,4.8
	c-0.3,1.4-1,2.6-2.2,3.4c-1.3,0.8-2.9,1.2-4.7,1.2c-2,0-3.5-0.5-4.7-1.6c-1-1-1.6-2.5-1.4-4.3h-5.7c-0.1,2,0.4,3.8,1.3,5.4
	c0.9,1.6,2.3,2.7,4.2,3.7c1.8,0.9,3.9,1.3,6.1,1.3c2.3,0,4.6-0.4,6.5-1c1.9-0.6,3.5-1.8,4.6-3.1c1.2-1.4,1.7-3,2-4.8
	c0.1-2.2-0.4-4.2-1.8-5.9c-1.4-1.7-3.9-3.1-7.6-4.3l-1.8-0.7c-3-1-4.3-2.6-4-4.4c0.3-1.4,0.9-2.6,2.2-3.4
	C341.7,427.3,343.2,426.9,345.1,426.9z M380.7,422.8H375l-6,32.6h20.9l0.8-4.6h-15.2L380.7,422.8z M419.6,422.8h-26.4l-0.8,4.6h10.3
	l-5.1,28.1h5.7l5.1-28.1h10.3L419.6,422.8z M445.2,430.5c-0.9-2.3-2.3-4.3-4.4-5.6c-2.1-1.3-4.6-2.1-7.3-2.1h-9.3l-5.9,32.6h9.9
	c3,0,5.9-0.7,8.4-2c2.4-1.3,4.6-3.1,6.3-5.4c1.6-2.3,2.6-5,3.1-8l0.3-1.8C446.5,435.5,446.1,432.8,445.2,430.5z M440,440.3
	c-0.5,3.3-1.8,5.9-3.9,7.8c-2.1,1.8-4.6,2.9-7.7,2.9h-3.4l4.3-23.6h4.3c2.1,0,3.8,0.7,5,2c1.2,1.2,1.8,2.9,2,5.1
	C440.5,436.2,440.3,438.1,440,440.3z"/>
<path class="st1" d="M111.3,314.6l-41.2,83.3h18.5l7.6-17.1h23l1.4,17.1h17.6l-11.4-83.3H111.3z M102.4,366.9l13.2-29.5l2.5,29.5
	H102.4z M211.5,325.2l2-10.7h-54.3l-2.6,14h34.1l-44.3,58.3l-2,10.8h54.4l2.6-14h-34.2L211.5,325.2z M278.5,314.6l-26.6,59.9
	l-5.1-59.9H225l-15,83.3h17.1L231,376l5-35.9l6.5,57.8H254l26.5-56l-7.4,32.9l-4.2,23.1h17l15-83.3L278.5,314.6L278.5,314.6z
	 M336.3,314.6l-41.2,83.3h18.5l7.6-17.1h23l1.4,17.1h17.6l-11.4-83.3H336.3z M327.5,366.9l13.1-29.5l2.5,29.5H327.5z M428.6,314.6
	l-9.9,55.1l-15.2-55.1h-16.7l-15,83.3h17.1l9.9-55.1l15.1,55.1h16.6l15-83.3H428.6L428.6,314.6z"/>
<g>
	<path class="st0" d="M132.7,251.1c0,0,2-0.8,5.5-2.2c20.2-8.6,90.3-39.4,98.4-58.7c9.7-22.4-3.3-23.1,5.7-34.7
		c9.1-11.6,91.7-88,91.7-88s-64.9,89.3-47.5,100.8c17.4,11.6,41.1-25.1,51.9-25.7c10.8-0.7,14.7,4.4,14.7,4.4l14.1,2l0.8-93
		l-66.7,1.3L132.7,251.1z"/>
	<path class="st1" d="M368.3,251.3V151c0,0-20,6.4-25.7,17.4c-5.7,11-39.8,37.8-55.1,46.2s-27,10.3-53.2,14.7
		c-26.4,4.4-93,22.4-93,22.4h224.5L368.3,251.3z"/>
</g>
</svg>
